<?xml version="1.0" encoding="UTF-8"?><!DOCTYPE svg PUBLIC "-//W3C//DTD SVG 1.1//EN" "http://www.w3.org/Graphics/SVG/1.1/DTD/svg11.dtd"><svg xmlns="http://www.w3.org/2000/svg"><symbol id="icon-arrow_btn" viewBox="0 0 48 48">
    <path d="M24 46C11.9 46 2 36.1 2 24S11.9 2 24 2s22 9.9 22 22-9.9 22-22 22zm0-42C13 4 4 13 4 24s9 20 20 20 20-9 20-20S35 4 24 4z"/>
    <path d="M21.4 36.7l-1.5-1.4L31.2 24 19.9 12.7l1.5-1.4L34.1 24z"/>
</symbol><symbol id="icon-facebook" viewBox="0 0 10 19">
    <path d="M9.766.157v2.946H8.014c-.64 0-1.071.134-1.295.402-.223.268-.335.67-.335 1.205v2.11h3.27l-.435 3.303H6.384v8.471H2.97v-8.47H.123V6.82H2.97V4.387c0-1.384.387-2.457 1.161-3.22C4.904.404 5.934.023 7.222.023c1.093 0 1.941.045 2.544.134z"/>
</symbol><symbol id="icon-heart" viewBox="0 0 32 29.6">
    <path d="M23.6 0c-3.4 0-6.3 2.7-7.6 5.6C14.7 2.7 11.8 0 8.4 0 3.8 0 0 3.8 0 8.4c0 9.4 9.5 11.9 16 21.2 6.1-9.3 16-12.1 16-21.2C32 3.8 28.2 0 23.6 0z"/>
</symbol><symbol id="icon-plus_btn" viewBox="0 0 512 512">
    <path d="M256.108 3.02c-139.743 0-253 113.257-253 253s113.257 252.995 253 252.995 253-113.252 253-252.995-113.256-253-253-253zm0 485.755c-128.338 0-232.76-104.417-232.76-232.755 0-128.339 104.422-232.76 232.76-232.76s232.76 104.421 232.76 232.76c0 128.338-104.422 232.755-232.76 232.755z"/>
    <path d="M266.228 104.22h-20.24V245.9H104.98v20.24h141.008v141.008h20.24V266.14h141.68V245.9h-141.68z"/>
</symbol><symbol id="icon-search" viewBox="0 0 32 32">
    <path d="M19.427 20.427a8.5 8.5 0 1 1 1.083-.917l5.998 5.998a.699.699 0 0 1-.008.992.7.7 0 0 1-.992.008l-6.08-6.08zM14.5 21a7.5 7.5 0 1 0 0-15 7.5 7.5 0 0 0 0 15z"/>
</symbol><symbol id="icon-twitter" viewBox="0 0 28 24">
    <path d="M23.87 4.43a.5.5 0 0 0-.6-.1 4.76 4.76 0 0 1-.75.27 4.85 4.85 0 0 0 .85-1.6.5.5 0 0 0-.77-.53 10.59 10.59 0 0 1-2.53 1A5.05 5.05 0 0 0 16.5 2a5.71 5.71 0 0 0-3 .93C11.6 4 11.27 6.47 11.41 8a13 13 0 0 1-9-4.76A.53.53 0 0 0 2 3a.5.5 0 0 0-.4.25 5.35 5.35 0 0 0 .22 5.7c-.15-.1-.31-.22-.47-.35A.5.5 0 0 0 .5 9 5.73 5.73 0 0 0 3 13.64l-.39-.11a.5.5 0 0 0-.61.67 6.48 6.48 0 0 0 4.19 3.62A9.22 9.22 0 0 1 .56 19a.5.5 0 0 0-.31.93A15.2 15.2 0 0 0 8 22a13.35 13.35 0 0 0 10-4.63 13.63 13.63 0 0 0 3.65-9.92A9.81 9.81 0 0 0 23.92 5a.5.5 0 0 0-.05-.57zM8 21.5z"/>
</symbol><symbol id="icon-vk" viewBox="0 0 30 30">
    <path d="M16 24c1 0 1-1.441 1-2 0-1 1-2 2-2s2.715 1.715 4 3c1 1 1 1 2 1h3s2-.076 2-2c0-.625-.685-1.685-3-4-2-2-3.026-.967 0-5 1.843-2.456 3.184-4.681 2.954-5.323C29.734 7.064 24.608 6.088 24 7c-2 3-2.367 3.735-3 5-1 2-1.099 3-2 3-.909 0-1-1.941-1-3 0-3.306.479-5.644-1-6h-3c-1.61 0-3 1-3 1s-1.241.968-1 1c.298.04 2-.414 2 1v2s.009 4-1 4c-1 0-3-4-5-7-.785-1.177-1-1-2-1-1.072 0-1.999.042-3 .042-1 0-1.128.637-1 .958 2 5 3.437 8.14 7.237 12.096C10.722 23.725 13.05 23.918 15 24c.5.021 0 0 1 0z"/>
</symbol></svg>